HIERARCHY
ROOT Hips
{
	OFFSET 0.000000 0.000000 0.000000
	CHANNELS 6 Xposition Yposition Zposition Xrotation Yrotation Zrotation
	JOINT LeftUpLeg_virtual
	{
		OFFSET 0.000000 0.000000 0.000000
		CHANNELS 3 Xrotation Yrotation Zrotation
		JOINT LeftUpLeg
		{
			OFFSET 10.205400 -3.823500 0.155100
			CHANNELS 3 Xrotation Yrotation Zrotation
			JOINT LeftLeg
			{
				OFFSET 0.708757 -12.982077 0.567790
				CHANNELS 3 Xrotation Yrotation Zrotation
				JOINT LeftFoot
				{
					OFFSET -0.708756 -10.717838 -2.184338
					CHANNELS 3 Xrotation Yrotation Zrotation
					JOINT LeftToeBase
					{
						OFFSET 0.108149 -7.191104 7.560241
						CHANNELS 3 Xrotation Yrotation Zrotation
						JOINT LeftToe_End
						{
							OFFSET 0.070230 0.081724 4.490308
							CHANNELS 3 Xrotation Yrotation Zrotation
							End Site
							{
								OFFSET 0 0 0
							}
						}
					}
				}
			}
		}
	}
	JOINT RightUpLeg_virtual
	{
		OFFSET 0.000000 0.000000 0.000000
		CHANNELS 3 Xrotation Yrotation Zrotation
		JOINT RightUpLeg
		{
			OFFSET -10.205400 -3.823500 0.005500
			CHANNELS 3 Xrotation Yrotation Zrotation
			JOINT RightLeg
			{
				OFFSET -0.708756 -12.982134 0.610632
				CHANNELS 3 Xrotation Yrotation Zrotation
				JOINT RightFoot
				{
					OFFSET 0.708754 -10.717769 -1.945823
					CHANNELS 3 Xrotation Yrotation Zrotation
					JOINT RightToeBase
					{
						OFFSET -0.108140 -7.191069 7.372968
						CHANNELS 3 Xrotation Yrotation Zrotation
						JOINT RightToe_End
						{
							OFFSET -0.070227 0.081735 4.479403
							CHANNELS 3 Xrotation Yrotation Zrotation
							End Site
							{
								OFFSET 0 0 0
							}
						}
					}
				}
			}
		}
	}
	JOINT Spine_virtual
	{
		OFFSET 0.000000 0.000000 0.000000
		CHANNELS 3 Xrotation Yrotation Zrotation
		JOINT Spine
		{
			OFFSET 0.000000 6.876099 0.125700
			CHANNELS 3 Xrotation Yrotation Zrotation
			JOINT Spine1
			{
				OFFSET 0.000000 5.730043 0.104720
				CHANNELS 3 Xrotation Yrotation Zrotation
				JOINT Spine1_split
				{
					OFFSET 0.000000 5.730043 0.104720
					CHANNELS 3 Xrotation Yrotation Zrotation
					JOINT Spine2
					{
						OFFSET 0.000000 5.730043 0.104720
						CHANNELS 3 Xrotation Yrotation Zrotation
						JOINT Neck_virtual
						{
							OFFSET 0.000000 0.000000 0.000000
							CHANNELS 3 Xrotation Yrotation Zrotation
							JOINT Neck
							{
								OFFSET 0.000000 10.314075 0.188496
								CHANNELS 3 Xrotation Yrotation Zrotation
								JOINT Head
								{
									OFFSET 0.000000 7.643700 -2.377400
									CHANNELS 3 Xrotation Yrotation Zrotation
									JOINT HeadTop_End
									{
										OFFSET 0.000000 43.788605 -13.619600
										CHANNELS 3 Xrotation Yrotation Zrotation
										End Site
										{
											OFFSET 0 0 0
										}
									}
								}
							}
						}
						JOINT LeftShoulder_virtual
						{
							OFFSET 0.000000 0.000000 0.000000
							CHANNELS 3 Xrotation Yrotation Zrotation
							JOINT LeftShoulder
							{
								OFFSET 2.196100 4.412489 0.087492
								CHANNELS 3 Xrotation Yrotation Zrotation
								JOINT LeftShoulder_split
								{
									OFFSET 2.196100 4.412489 0.087492
									CHANNELS 3 Xrotation Yrotation Zrotation
									JOINT LeftArm
									{
										OFFSET 8.771219 -2.981674 -0.026999
										CHANNELS 3 Xrotation Yrotation Zrotation
										JOINT LeftForeArm
										{
											OFFSET 8.512804 0.000000 -0.000000
											CHANNELS 3 Xrotation Yrotation Zrotation
											JOINT LeftHand
											{
												OFFSET 18.484802 0.000000 -0.000000
												CHANNELS 3 Xrotation Yrotation Zrotation
												End Site
												{
													OFFSET 0 0 0
												}
											}
										}
									}
								}
							}
						}
						JOINT RightShoulder_virtual
						{
							OFFSET 0.000000 0.000000 0.000000
							CHANNELS 3 Xrotation Yrotation Zrotation
							JOINT RightShoulder
							{
								OFFSET -2.196100 4.412496 0.070690
								CHANNELS 3 Xrotation Yrotation Zrotation
								JOINT RightShoulder_split
								{
									OFFSET -2.196100 4.412496 0.070690
									CHANNELS 3 Xrotation Yrotation Zrotation
									JOINT RightArm
									{
										OFFSET -8.771282 -2.981682 -0.094208
										CHANNELS 3 Xrotation Yrotation Zrotation
										JOINT RightForeArm
										{
											OFFSET -8.494598 0.000000 0.000000
											CHANNELS 3 Xrotation Yrotation Zrotation
											JOINT RightHand
											{
												OFFSET -18.483803 0.000000 0.000001
												CHANNELS 3 Xrotation Yrotation Zrotation
												End Site
												{
													OFFSET 0 0 0
												}
											}
										}
									}
								}
							}
						}
					}
				}
			}
		}
	}
}
MOTION
Frames: 6
Frame Time: 0.03333333
-0.098304 32.266628 -0.637896 0.000000 0.000000 0.000000 -1.890132 -0.627648 -0.399876 -9.574651 3.153279 12.473782 28.832571 2.871181 1.321281 -19.212948 5.049013 -15.557380 2.397434 0.376180 -1.692331 0.000000 0.000000 0.000000 -1.681417 -0.451133 -0.265413 -11.068534 2.483638 -6.279895 30.409802 0.506063 -1.048738 -17.219400 -2.248628 9.219513 3.921963 0.596784 1.192232 0.000000 0.000000 0.000000 -1.783534 -1.743632 -0.457607 0.640014 -0.818046 0.118938 -1.266498 -0.297050 0.611666 1.052975 0.252583 0.018581 0.000000 0.000000 0.000000 -1.589205 0.023380 0.621248 -0.656693 0.466762 -0.867238 4.340448 -1.929949 2.213184 0.000000 0.000000 0.000000 -1.715400 0.205686 0.312647 1.492300 -10.378192 -10.311352 -2.844884 0.472942 -1.772475 20.660969 -21.542005 -65.621500 -1.080784 -19.749079 0.884619 0.000000 0.000000 0.000000 -1.167483 0.167600 0.537170 1.565272 5.381976 10.705376 -0.158639 3.251783 -2.201669 5.987781 23.432224 66.407976 0.635263 16.159729 0.705454 0.000000 0.000000 0.000000 
-0.033036 32.314621 -0.599854 0.000000 0.000000 0.000000 -1.849668 -0.582920 -0.400286 -9.568359 2.978099 12.452455 28.582206 3.085897 1.261484 -19.029291 5.083106 -15.220168 2.245367 0.404462 -1.663460 0.000000 0.000000 0.000000 -1.614886 -0.510834 -0.281374 -10.691760 2.534417 -6.289071 30.073985 0.459016 -1.170258 -17.081330 -2.294735 8.738365 3.432745 0.512900 1.377303 0.000000 0.000000 0.000000 -1.608884 -1.852282 -0.528825 0.507986 -0.790474 0.185444 -1.218929 -0.306895 0.603389 1.172518 0.399776 0.093523 0.000000 0.000000 0.000000 -1.600361 -0.000423 0.624930 -0.666506 0.536794 -0.856160 4.278383 -1.994137 2.144303 0.000000 0.000000 0.000000 -1.703065 0.212216 0.308710 1.488919 -10.451544 -10.462982 -2.840254 0.503826 -1.761595 20.655472 -21.647323 -65.682576 -1.076993 -19.792990 0.773948 0.000000 0.000000 0.000000 -1.143363 0.160589 0.521587 1.587225 5.558557 10.792020 -0.071685 3.391859 -2.240487 6.144347 23.523253 66.277253 0.678653 16.095660 0.715901 0.000000 0.000000 0.000000 
0.022092 32.359993 -0.565090 0.000000 0.000000 0.000000 -1.878586 -0.652540 -0.433601 -9.586105 2.938996 12.440797 28.288058 3.535635 1.282170 -18.684824 4.983266 -14.720623 2.142104 0.454239 -1.526325 0.000000 0.000000 0.000000 -1.552563 -0.500065 -0.364374 -10.285471 2.580643 -6.258972 29.910583 0.410307 -1.368759 -17.636805 -2.288051 7.850460 3.342937 0.522610 1.379779 0.000000 0.000000 0.000000 -1.421599 -2.033865 -0.641299 0.473962 -0.738155 0.318059 -1.136959 -0.307416 0.572047 1.219999 0.425594 0.087768 0.000000 0.000000 0.000000 -1.578399 -0.023917 0.600076 -0.646959 0.660135 -0.918072 4.035727 -2.082340 2.142972 0.000000 0.000000 0.000000 -1.657932 0.208924 0.275805 1.475491 -10.588089 -10.617421 -2.862666 0.740377 -1.713984 20.564313 -21.660360 -65.742524 -1.030825 -19.960972 0.663678 0.000000 0.000000 0.000000 -1.096093 0.142174 0.477992 1.639183 5.732495 10.868136 0.053717 3.532788 -2.290424 6.418346 23.815485 65.928394 0.741106 16.205187 0.704926 0.000000 0.000000 0.000000 
0.074179 32.369991 -0.559099 0.000000 0.000000 0.000000 -1.936429 -0.865484 -0.474408 -9.585283 3.080007 12.360545 28.060620 4.154655 1.400228 -18.386224 4.807026 -14.174318 2.065831 0.524298 -1.293913 0.000000 0.000000 0.000000 -1.466813 -0.471459 -0.437643 -10.166545 2.587214 -6.305561 30.086106 0.426268 -1.507945 -18.341657 -2.256208 6.965635 3.417663 0.580273 1.201025 0.000000 0.000000 0.000000 -1.257612 -2.284921 -0.730810 0.543019 -0.680880 0.455004 -1.018273 -0.290552 0.525888 1.140584 0.354725 -0.027604 0.000000 0.000000 0.000000 -1.509850 -0.034968 0.558842 -0.614578 0.807487 -1.027952 3.604015 -2.199470 2.232791 0.000000 0.000000 0.000000 -1.583071 0.207145 0.227342 1.449444 -10.762725 -10.744808 -2.957089 1.034049 -1.638693 20.443601 -21.669060 -65.671559 -0.961667 -20.210339 0.541261 0.000000 0.000000 0.000000 -1.028597 0.121682 0.415346 1.716335 5.891025 10.902521 0.222262 3.643302 -2.310716 6.699048 24.289785 65.409826 0.805018 16.453466 0.682215 0.000000 0.000000 0.000000 
0.135118 32.345734 -0.574547 0.000000 0.000000 0.000000 -1.925733 -1.212611 -0.499417 -9.684216 3.333894 12.181366 28.028953 4.865128 1.615519 -18.322232 4.602536 -13.715937 1.987384 0.596003 -0.986914 0.000000 0.000000 0.000000 -1.324142 -0.527131 -0.479635 -10.466384 2.520331 -6.444071 30.286128 0.713962 -1.582544 -18.628506 -2.257671 6.756734 2.729689 0.594475 0.821887 0.000000 0.000000 0.000000 -1.096036 -2.558573 -0.798914 0.699076 -0.636842 0.531743 -0.853002 -0.259434 0.476609 1.011171 0.224603 -0.106877 0.000000 0.000000 0.000000 -1.385240 -0.023906 0.513809 -0.596300 0.931337 -1.140309 2.980379 -2.340426 2.448800 0.000000 0.000000 0.000000 -1.467053 0.221617 0.181709 1.409914 -10.980281 -10.821022 -3.023998 1.225667 -1.741705 20.308797 -21.759786 -65.404758 -0.879137 -20.559047 0.406754 0.000000 0.000000 0.000000 -0.933262 0.112025 0.354222 1.808941 6.054979 10.896937 0.394885 3.704027 -2.340834 6.886705 24.923365 64.796666 0.840366 16.785135 0.652517 0.000000 0.000000 0.000000 
0.194635 32.296265 -0.595846 0.000000 0.000000 0.000000 -1.774579 -1.607476 -0.521102 -9.987394 3.583744 11.975161 28.319720 5.568124 1.906848 -18.542538 4.402493 -13.513408 1.831241 0.644876 -0.612728 0.000000 0.000000 0.000000 -1.066524 -0.746116 -0.514792 -11.145389 2.455986 -6.558044 30.235769 1.254115 -1.619962 -18.413486 -2.341245 7.302126 1.414968 0.535286 0.357856 0.000000 0.000000 0.000000 -0.903561 -2.866918 -0.914214 0.906262 -0.617413 0.521348 -0.647338 -0.213780 0.429384 0.920990 0.089054 -0.045759 0.000000 0.000000 0.000000 -1.194506 0.015085 0.471904 -0.614176 1.004896 -1.220623 2.170992 -2.534569 2.809083 0.000000 0.000000 0.000000 -1.312474 0.259399 0.148870 1.357440 -11.256547 -10.828432 -2.959738 1.258620 -1.970473 20.117641 -21.905673 -64.936869 -0.789679 -20.980473 0.267616 0.000000 0.000000 0.000000 -0.800162 0.125272 0.304470 1.898803 6.281070 10.852718 0.558517 3.749154 -2.357620 6.924705 25.701391 64.156636 0.833005 17.132647 0.625488 0.000000 0.000000 0.000000 
